<?xml version="1.0" encoding="UTF-8" standalone="no"?>
<svg width="18px" height="15px" viewBox="0 0 18 15" version="1.1" xmlns="http://www.w3.org/2000/svg" xmlns:xlink="http://www.w3.org/1999/xlink">
    <!-- Generator: Sketch 48.2 (47327) - http://www.bohemiancoding.com/sketch -->
    <title>icon/email</title>
    <desc>Created with Sketch.</desc>
    <defs></defs>
    <g id="index" stroke="none" stroke-width="1" fill="none" fill-rule="evenodd" transform="translate(-774.000000, -489.000000)">
        <g id="hero" fill="#FFFFFF">
            <path d="M792,493.703125 L792,501.678571 C792,502.120538 791.842636,502.498882 791.527902,502.813616 C791.213168,503.12835 790.834824,503.285714 790.392857,503.285714 L775.607143,503.285714 C775.165176,503.285714 774.786832,503.12835 774.472098,502.813616 C774.157364,502.498882 774,502.120538 774,501.678571 L774,493.703125 C774.294644,494.031252 774.632811,494.322543 775.014509,494.577009 C777.438628,496.224339 779.102674,497.379461 780.006696,498.042411 C780.388395,498.323662 780.698101,498.542968 780.935826,498.700335 C781.17355,498.857702 781.489953,499.018414 781.885045,499.182478 C782.280136,499.346541 782.648436,499.428571 782.989955,499.428571 L783.010045,499.428571 C783.351564,499.428571 783.719864,499.346541 784.114955,499.182478 C784.510047,499.018414 784.82645,498.857702 785.064174,498.700335 C785.301899,498.542968 785.611605,498.323662 785.993304,498.042411 C787.131702,497.218746 788.799096,496.063624 790.995536,494.577009 C791.377234,494.315847 791.712052,494.024555 792,493.703125 Z M792,490.75 C792,491.279021 791.835939,491.784596 791.507812,492.266741 C791.179686,492.748886 790.771208,493.160713 790.282366,493.502232 C787.764496,495.250009 786.197548,496.338167 785.581473,496.766741 C785.514509,496.813616 785.372211,496.915736 785.154576,497.073103 C784.936941,497.23047 784.756139,497.3577 784.612165,497.454799 C784.468191,497.551898 784.294086,497.660714 784.089844,497.78125 C783.885602,497.901786 783.693081,497.992187 783.512277,498.052455 C783.331472,498.112724 783.164063,498.142857 783.010045,498.142857 L782.989955,498.142857 C782.835937,498.142857 782.668528,498.112724 782.487723,498.052455 C782.306919,497.992187 782.114398,497.901786 781.910156,497.78125 C781.705914,497.660714 781.531809,497.551898 781.387835,497.454799 C781.243861,497.3577 781.063059,497.23047 780.845424,497.073103 C780.627789,496.915736 780.485491,496.813616 780.418527,496.766741 C779.809149,496.338167 778.931925,495.727125 777.78683,494.933594 C776.641735,494.140063 775.955358,493.662947 775.727679,493.502232 C775.312498,493.220981 774.920761,492.834266 774.552455,492.342076 C774.18415,491.849886 774,491.392859 774,490.970982 C774,490.448658 774.13895,490.013395 774.416853,489.665179 C774.694756,489.316963 775.091515,489.142857 775.607143,489.142857 L790.392857,489.142857 C790.828127,489.142857 791.204798,489.300222 791.522879,489.614955 C791.840961,489.929689 792,490.308034 792,490.75 Z" id="icon/email"></path>
        </g>
    </g>
</svg>