<svg xmlns="http://www.w3.org/2000/svg" xmlns:xlink="http://www.w3.org/1999/xlink" width="14px" height="12px" viewBox="0 0 14 12" version="1.1">
    <!-- Generator: Sketch 49.3 (51167) - http://www.bohemiancoding.com/sketch -->
    <title>icon/bars</title>
    <desc>Created with Sketch.</desc>
    <defs/>
    <g id="Symbols" stroke="none" stroke-width="1" fill="none" fill-rule="evenodd">
        <g id="mobile_nav" transform="translate(-346.000000, -34.000000)" fill="#333333">
            <g id="icon/bars">
                <path d="M359.714286,44.2857143 L359.714286,45.4285714 C359.714286,45.5833341 359.657739,45.7172613 359.544643,45.8303571 C359.431547,45.9434529 359.29762,46 359.142857,46 L346.571429,46 C346.416666,46 346.282739,45.9434529 346.169643,45.8303571 C346.056547,45.7172613 346,45.5833341 346,45.4285714 L346,44.2857143 C346,44.1309516 346.056547,43.9970244 346.169643,43.8839286 C346.282739,43.7708328 346.416666,43.7142857 346.571429,43.7142857 L359.142857,43.7142857 C359.29762,43.7142857 359.431547,43.7708328 359.544643,43.8839286 C359.657739,43.9970244 359.714286,44.1309516 359.714286,44.2857143 Z M359.714286,39.7142857 L359.714286,40.8571429 C359.714286,41.0119055 359.657739,41.1458328 359.544643,41.2589286 C359.431547,41.3720244 359.29762,41.4285714 359.142857,41.4285714 L346.571429,41.4285714 C346.416666,41.4285714 346.282739,41.3720244 346.169643,41.2589286 C346.056547,41.1458328 346,41.0119055 346,40.8571429 L346,39.7142857 C346,39.559523 346.056547,39.4255958 346.169643,39.3125 C346.282739,39.1994042 346.416666,39.1428571 346.571429,39.1428571 L359.142857,39.1428571 C359.29762,39.1428571 359.431547,39.1994042 359.544643,39.3125 C359.657739,39.4255958 359.714286,39.559523 359.714286,39.7142857 Z M359.714286,35.1428571 L359.714286,36.2857143 C359.714286,36.440477 359.657739,36.5744042 359.544643,36.6875 C359.431547,36.8005958 359.29762,36.8571429 359.142857,36.8571429 L346.571429,36.8571429 C346.416666,36.8571429 346.282739,36.8005958 346.169643,36.6875 C346.056547,36.5744042 346,36.440477 346,36.2857143 L346,35.1428571 C346,34.9880945 346.056547,34.8541672 346.169643,34.7410714 C346.282739,34.6279756 346.416666,34.5714286 346.571429,34.5714286 L359.142857,34.5714286 C359.29762,34.5714286 359.431547,34.6279756 359.544643,34.7410714 C359.657739,34.8541672 359.714286,34.9880945 359.714286,35.1428571 Z"/>
            </g>
        </g>
    </g>
</svg>