<?xml version="1.0" encoding="UTF-8" standalone="no"?>
<svg width="18px" height="19px" viewBox="0 0 18 19" version="1.1" xmlns="http://www.w3.org/2000/svg" xmlns:xlink="http://www.w3.org/1999/xlink">
    <!-- Generator: Sketch 48.2 (47327) - http://www.bohemiancoding.com/sketch -->
    <title>icon/medium</title>
    <desc>Created with Sketch.</desc>
    <defs></defs>
    <g id="index" stroke="none" stroke-width="1" fill="none" fill-rule="evenodd" transform="translate(-645.000000, -487.000000)">
        <g id="hero" fill="#FFFFFF">
            <path d="M645.269531,487.750039 L662.76949,487.750039 L662.76949,505.249997 L645.269531,505.249997 L645.269531,487.750039 Z M659.800747,491.890654 L659.800747,491.695342 L656.558567,491.695342 L654.253885,497.476578 L651.597641,491.695342 L648.199212,491.695342 L648.199212,491.890654 L649.292959,493.218776 C649.423167,493.322942 649.475251,493.45315 649.449209,493.6094 L649.449209,498.8047 C649.475251,498.986991 649.423167,499.156262 649.292959,499.312511 L648.042962,500.796883 L648.042962,500.992195 L651.558579,500.992195 L651.558579,500.796883 L650.308582,499.312511 C650.178374,499.156262 650.12629,498.986991 650.152332,498.8047 L650.152332,494.312523 L653.238262,500.992195 L653.589824,500.992195 L656.207005,494.312523 L656.207005,499.664073 C656.207005,499.768239 656.180963,499.846364 656.12888,499.898447 L655.191383,500.835945 L655.191383,501.031257 L659.800747,501.031257 L659.800747,500.835945 L658.863249,499.93751 C658.785124,499.859385 658.746062,499.768239 658.746062,499.664073 L658.746062,493.062526 C658.746062,492.958359 658.785124,492.867214 658.863249,492.789089 L659.800747,491.890654 Z" id="icon/medium"></path>
        </g>
    </g>
</svg>