<?xml version="1.0" encoding="UTF-8" standalone="no"?>
<svg width="19px" height="18px" viewBox="0 0 19 18" version="1.1" xmlns="http://www.w3.org/2000/svg" xmlns:xlink="http://www.w3.org/1999/xlink">
    <!-- Generator: Sketch 48.2 (47327) - http://www.bohemiancoding.com/sketch -->
    <title>icon/phone</title>
    <desc>Created with Sketch.</desc>
    <defs></defs>
    <g id="index" stroke="none" stroke-width="1" fill="none" fill-rule="evenodd" transform="translate(-708.000000, -488.000000)">
        <g id="hero" fill="#FFFFFF">
            <path d="M723.214286,500.171875 C723.214286,500.090029 723.206845,500.030506 723.191964,499.993304 C723.177083,499.956101 723.11012,499.894718 722.991071,499.809152 C722.872023,499.723586 722.721355,499.630581 722.539062,499.530134 C722.35677,499.429687 722.18006,499.331102 722.008929,499.234375 C721.837797,499.137648 721.668528,499.044643 721.501116,498.955357 C721.333705,498.866071 721.227679,498.810268 721.183036,498.787946 C721.145833,498.765625 721.075149,498.717262 720.970982,498.642857 C720.866815,498.568452 720.77381,498.512649 720.691964,498.475446 C720.610119,498.438244 720.531994,498.419643 720.457589,498.419643 C720.345982,498.419643 720.210194,498.495907 720.050223,498.648438 C719.890252,498.800968 719.743304,498.968377 719.609375,499.15067 C719.475446,499.332962 719.332218,499.500371 719.179688,499.652902 C719.027157,499.805432 718.90253,499.881696 718.805804,499.881696 C718.75372,499.881696 718.692337,499.868676 718.621652,499.842634 C718.550967,499.816592 718.493304,499.792411 718.448661,499.770089 C718.404018,499.747768 718.340774,499.712426 718.258929,499.664062 C718.177083,499.615699 718.125,499.584077 718.102679,499.569196 C717.366068,499.159968 716.733634,498.689363 716.205357,498.157366 C715.677081,497.625369 715.204615,496.991075 714.787946,496.254464 C714.773065,496.232143 714.741444,496.18006 714.69308,496.098214 C714.644717,496.016369 714.609375,495.953125 714.587054,495.908482 C714.564732,495.863839 714.540551,495.806176 714.514509,495.735491 C714.488467,495.664806 714.475446,495.603423 714.475446,495.551339 C714.475446,495.454613 714.551711,495.329986 714.704241,495.177455 C714.856772,495.024925 715.024181,494.881697 715.206473,494.747768 C715.388766,494.613839 715.556175,494.466891 715.708705,494.30692 C715.861236,494.146949 715.9375,494.011161 715.9375,493.899554 C715.9375,493.825148 715.918899,493.747024 715.881696,493.665179 C715.844494,493.583333 715.788691,493.490328 715.714286,493.386161 C715.639881,493.281994 715.591518,493.21131 715.569196,493.174107 C715.546875,493.129464 715.491072,493.023438 715.401786,492.856027 C715.3125,492.688615 715.219495,492.519346 715.122768,492.348214 C715.026041,492.177082 714.927456,492.000373 714.827009,491.81808 C714.726562,491.635788 714.633557,491.48512 714.547991,491.366071 C714.462425,491.247023 714.401042,491.18006 714.363839,491.165179 C714.326637,491.150298 714.267114,491.142857 714.185268,491.142857 C713.828123,491.142857 713.452383,491.224702 713.058036,491.388393 C712.715772,491.544644 712.418156,491.896203 712.165179,492.44308 C711.912201,492.989958 711.785714,493.475444 711.785714,493.899554 C711.785714,494.018602 711.795015,494.145089 711.813616,494.279018 C711.832217,494.412947 711.850818,494.526413 711.86942,494.61942 C711.888021,494.712426 711.921503,494.835193 711.969866,494.987723 C712.018229,495.140254 712.055431,495.25 712.081473,495.316964 C712.107515,495.383929 712.154018,495.506696 712.220982,495.685268 C712.287947,495.86384 712.328869,495.975446 712.34375,496.020089 C712.790181,497.240333 713.595604,498.432658 714.760045,499.597098 C715.924485,500.761539 717.116809,501.566962 718.337054,502.013393 C718.381697,502.028274 718.493303,502.069196 718.671875,502.136161 C718.850447,502.203125 718.973214,502.249628 719.040179,502.27567 C719.107143,502.301711 719.216889,502.338913 719.36942,502.387277 C719.52195,502.43564 719.644717,502.469122 719.737723,502.487723 C719.83073,502.506324 719.944196,502.524926 720.078125,502.543527 C720.212054,502.562128 720.338541,502.571429 720.457589,502.571429 C720.881699,502.571429 721.367185,502.444942 721.914062,502.191964 C722.46094,501.938987 722.812499,501.641371 722.96875,501.299107 C723.132441,500.90476 723.214286,500.52902 723.214286,500.171875 Z M726.071429,491.5 L726.071429,502.214286 C726.071429,503.099707 725.757072,503.856768 725.128348,504.485491 C724.499625,505.114214 723.742564,505.428571 722.857143,505.428571 L712.142857,505.428571 C711.257436,505.428571 710.500375,505.114214 709.871652,504.485491 C709.242928,503.856768 708.928571,503.099707 708.928571,502.214286 L708.928571,491.5 C708.928571,490.614579 709.242928,489.857518 709.871652,489.228795 C710.500375,488.600071 711.257436,488.285714 712.142857,488.285714 L722.857143,488.285714 C723.742564,488.285714 724.499625,488.600071 725.128348,489.228795 C725.757072,489.857518 726.071429,490.614579 726.071429,491.5 Z" id="icon/phone"></path>
        </g>
    </g>
</svg>